# Blender v2.79 (sub 0) OBJ File: ''
# www.blender.org
mtllib cube-tris.mtl
o Cube.001
v 348.951996 -348.951935 -348.952026
v 348.951996 -348.952057 348.951935
v -348.952026 -348.952057 348.951874
v -348.951874 -348.951935 -348.952179
v 348.952148 348.952057 -348.951752
v -348.951965 348.952057 -348.951935
v -348.952118 348.951935 348.951935
v 348.951782 348.951935 348.952271
vn 0.0000 -1.0000 -0.0000
vn -0.0000 1.0000 0.0000
vn 1.0000 0.0000 0.0000
vn -0.0000 -0.0000 1.0000
vn -1.0000 -0.0000 -0.0000
vn 0.0000 0.0000 -1.0000
usemtl Material.001
s 1
f 1//1 3//1 4//1
f 6//2 8//2 5//2
f 5//3 2//3 1//3
f 8//4 3//4 2//4
f 7//5 4//5 3//5
f 1//6 6//6 5//6
f 1//1 2//1 3//1
f 6//2 7//2 8//2
f 5//3 8//3 2//3
f 8//4 7//4 3//4
f 7//5 6//5 4//5
f 1//6 4//6 6//6
